<mxfile host="app.diagrams.net" agent="Mozilla/5.0 (Windows NT 10.0; Win64; x64) AppleWebKit/537.36 (KHTML, like Gecko) Chrome/132.0.0.0 Safari/537.36" version="26.0.13">
  <diagram name="Page-1" id="...">
    <mxGraphModel dx="1167" dy="619" grid="1" gridSize="10" guides="1" tooltips="1" connect="1" arrows="1" fold="1" page="1" pageScale="1" pageWidth="850" pageHeight="1100" math="0" shadow="0">
      <root>
        <mxCell id="0" />
        <mxCell id="1" parent="0" />
        <mxCell id="2" value="Orders" style="swimlane;fontStyle=1;align=center;verticalAlign=top;childLayout=stackLayout;horizontal=1;startSize=26;horizontalStack=0;resizeParent=1;resizeParentMax=0;resizeLast=0;collapsible=1;marginBottom=0;fillColor=light-dark(#FFFFFF,var(--ge-dark-color, #121212));" parent="1" vertex="1">
          <mxGeometry x="425" y="10" width="120" height="182" as="geometry" />
        </mxCell>
        <mxCell id="3" value="order_id (PK)" style="text;strokeColor=none;fillColor=light-dark(#FFFFFF,var(--ge-dark-color, #121212));align=left;verticalAlign=top;spacingLeft=4;spacingRight=4;overflow=hidden;rotatable=0;points=[[0,0.5],[1,0.5]];portConstraint=eastwest;" parent="2" vertex="1">
          <mxGeometry y="26" width="120" height="26" as="geometry" />
        </mxCell>
        <mxCell id="4" value="address" style="text;strokeColor=none;fillColor=light-dark(#FFFFFF,var(--ge-dark-color, #121212));align=left;verticalAlign=top;spacingLeft=4;spacingRight=4;overflow=hidden;rotatable=0;points=[[0,0.5],[1,0.5]];portConstraint=eastwest;" parent="2" vertex="1">
          <mxGeometry y="52" width="120" height="26" as="geometry" />
        </mxCell>
        <mxCell id="5" value="weight" style="text;strokeColor=none;fillColor=light-dark(#FFFFFF,var(--ge-dark-color, #121212));align=left;verticalAlign=top;spacingLeft=4;spacingRight=4;overflow=hidden;rotatable=0;points=[[0,0.5],[1,0.5]];portConstraint=eastwest;" parent="2" vertex="1">
          <mxGeometry y="78" width="120" height="26" as="geometry" />
        </mxCell>
        <mxCell id="6" value="volume" style="text;strokeColor=none;fillColor=light-dark(#FFFFFF,var(--ge-dark-color, #121212));align=left;verticalAlign=top;spacingLeft=4;spacingRight=4;overflow=hidden;rotatable=0;points=[[0,0.5],[1,0.5]];portConstraint=eastwest;" parent="2" vertex="1">
          <mxGeometry y="104" width="120" height="26" as="geometry" />
        </mxCell>
        <mxCell id="7" value="priority" style="text;strokeColor=none;fillColor=light-dark(#FFFFFF,var(--ge-dark-color, #121212));align=left;verticalAlign=top;spacingLeft=4;spacingRight=4;overflow=hidden;rotatable=0;points=[[0,0.5],[1,0.5]];portConstraint=eastwest;" parent="2" vertex="1">
          <mxGeometry y="130" width="120" height="26" as="geometry" />
        </mxCell>
        <mxCell id="8" value="created_at" style="text;strokeColor=none;fillColor=light-dark(#FFFFFF,var(--ge-dark-color, #121212));align=left;verticalAlign=top;spacingLeft=4;spacingRight=4;overflow=hidden;rotatable=0;points=[[0,0.5],[1,0.5]];portConstraint=eastwest;" parent="2" vertex="1">
          <mxGeometry y="156" width="120" height="26" as="geometry" />
        </mxCell>
        <mxCell id="9" value="Vehicles" style="swimlane;fontStyle=1;align=center;verticalAlign=top;childLayout=stackLayout;horizontal=1;startSize=26;horizontalStack=0;resizeParent=1;resizeParentMax=0;resizeLast=0;collapsible=1;marginBottom=0;fillColor=light-dark(#FFFFFF,var(--ge-dark-color, #121212));" parent="1" vertex="1">
          <mxGeometry x="425" y="310" width="120" height="156" as="geometry" />
        </mxCell>
        <mxCell id="10" value="vehicle_id (PK)" style="text;strokeColor=none;fillColor=light-dark(#FFFFFF,var(--ge-dark-color, #121212));align=left;verticalAlign=top;spacingLeft=4;spacingRight=4;overflow=hidden;rotatable=0;points=[[0,0.5],[1,0.5]];portConstraint=eastwest;" parent="9" vertex="1">
          <mxGeometry y="26" width="120" height="26" as="geometry" />
        </mxCell>
        <mxCell id="11" value="latitude" style="text;strokeColor=none;fillColor=light-dark(#FFFFFF,var(--ge-dark-color, #121212));align=left;verticalAlign=top;spacingLeft=4;spacingRight=4;overflow=hidden;rotatable=0;points=[[0,0.5],[1,0.5]];portConstraint=eastwest;" parent="9" vertex="1">
          <mxGeometry y="52" width="120" height="26" as="geometry" />
        </mxCell>
        <mxCell id="12" value="longitude" style="text;strokeColor=none;fillColor=light-dark(#FFFFFF,var(--ge-dark-color, #121212));align=left;verticalAlign=top;spacingLeft=4;spacingRight=4;overflow=hidden;rotatable=0;points=[[0,0.5],[1,0.5]];portConstraint=eastwest;" parent="9" vertex="1">
          <mxGeometry y="78" width="120" height="26" as="geometry" />
        </mxCell>
        <mxCell id="13" value="speed" style="text;strokeColor=none;fillColor=light-dark(#FFFFFF,var(--ge-dark-color, #121212));align=left;verticalAlign=top;spacingLeft=4;spacingRight=4;overflow=hidden;rotatable=0;points=[[0,0.5],[1,0.5]];portConstraint=eastwest;" parent="9" vertex="1">
          <mxGeometry y="104" width="120" height="26" as="geometry" />
        </mxCell>
        <mxCell id="14" value="timestamp" style="text;strokeColor=none;fillColor=light-dark(#FFFFFF,var(--ge-dark-color, #121212));align=left;verticalAlign=top;spacingLeft=4;spacingRight=4;overflow=hidden;rotatable=0;points=[[0,0.5],[1,0.5]];portConstraint=eastwest;" parent="9" vertex="1">
          <mxGeometry y="130" width="120" height="26" as="geometry" />
        </mxCell>
        <mxCell id="15" value="Weather" style="swimlane;fontStyle=1;align=center;verticalAlign=top;childLayout=stackLayout;horizontal=1;startSize=26;horizontalStack=0;resizeParent=1;resizeParentMax=0;resizeLast=0;collapsible=1;marginBottom=0;fillColor=light-dark(#FFFFFF,var(--ge-dark-color, #121212));" parent="1" vertex="1">
          <mxGeometry x="890" y="310" width="120" height="182" as="geometry" />
        </mxCell>
        <mxCell id="16" value="weather_id (PK)" style="text;strokeColor=none;fillColor=light-dark(#FFFFFF,var(--ge-dark-color, #121212));align=left;verticalAlign=top;spacingLeft=4;spacingRight=4;overflow=hidden;rotatable=0;points=[[0,0.5],[1,0.5]];portConstraint=eastwest;" parent="15" vertex="1">
          <mxGeometry y="26" width="120" height="26" as="geometry" />
        </mxCell>
        <mxCell id="17" value="region" style="text;strokeColor=none;fillColor=light-dark(#FFFFFF,var(--ge-dark-color, #121212));align=left;verticalAlign=top;spacingLeft=4;spacingRight=4;overflow=hidden;rotatable=0;points=[[0,0.5],[1,0.5]];portConstraint=eastwest;" parent="15" vertex="1">
          <mxGeometry y="52" width="120" height="26" as="geometry" />
        </mxCell>
        <mxCell id="18" value="temperature" style="text;strokeColor=none;fillColor=light-dark(#FFFFFF,var(--ge-dark-color, #121212));align=left;verticalAlign=top;spacingLeft=4;spacingRight=4;overflow=hidden;rotatable=0;points=[[0,0.5],[1,0.5]];portConstraint=eastwest;" parent="15" vertex="1">
          <mxGeometry y="78" width="120" height="26" as="geometry" />
        </mxCell>
        <mxCell id="19" value="precipitation" style="text;strokeColor=none;fillColor=light-dark(#FFFFFF,var(--ge-dark-color, #121212));align=left;verticalAlign=top;spacingLeft=4;spacingRight=4;overflow=hidden;rotatable=0;points=[[0,0.5],[1,0.5]];portConstraint=eastwest;" parent="15" vertex="1">
          <mxGeometry y="104" width="120" height="26" as="geometry" />
        </mxCell>
        <mxCell id="20" value="wind_speed" style="text;strokeColor=none;fillColor=light-dark(#FFFFFF,var(--ge-dark-color, #121212));align=left;verticalAlign=top;spacingLeft=4;spacingRight=4;overflow=hidden;rotatable=0;points=[[0,0.5],[1,0.5]];portConstraint=eastwest;" parent="15" vertex="1">
          <mxGeometry y="130" width="120" height="26" as="geometry" />
        </mxCell>
        <mxCell id="21" value="timestamp" style="text;strokeColor=none;fillColor=light-dark(#FFFFFF,var(--ge-dark-color, #121212));align=left;verticalAlign=top;spacingLeft=4;spacingRight=4;overflow=hidden;rotatable=0;points=[[0,0.5],[1,0.5]];portConstraint=eastwest;" parent="15" vertex="1">
          <mxGeometry y="156" width="120" height="26" as="geometry" />
        </mxCell>
        <mxCell id="22" value="Traffic" style="swimlane;fontStyle=1;align=center;verticalAlign=top;childLayout=stackLayout;horizontal=1;startSize=26;horizontalStack=0;resizeParent=1;resizeParentMax=0;resizeLast=0;collapsible=1;marginBottom=0;fillColor=light-dark(#FFFFFF,var(--ge-dark-color, #121212));" parent="1" vertex="1">
          <mxGeometry x="860" y="10" width="120" height="156" as="geometry" />
        </mxCell>
        <mxCell id="23" value="traffic_id (PK)" style="text;strokeColor=none;fillColor=light-dark(#FFFFFF,var(--ge-dark-color, #121212));align=left;verticalAlign=top;spacingLeft=4;spacingRight=4;overflow=hidden;rotatable=0;points=[[0,0.5],[1,0.5]];portConstraint=eastwest;" parent="22" vertex="1">
          <mxGeometry y="26" width="120" height="26" as="geometry" />
        </mxCell>
        <mxCell id="24" value="road_id" style="text;strokeColor=none;fillColor=light-dark(#FFFFFF,var(--ge-dark-color, #121212));align=left;verticalAlign=top;spacingLeft=4;spacingRight=4;overflow=hidden;rotatable=0;points=[[0,0.5],[1,0.5]];portConstraint=eastwest;" parent="22" vertex="1">
          <mxGeometry y="52" width="120" height="26" as="geometry" />
        </mxCell>
        <mxCell id="25" value="traffic_level" style="text;strokeColor=none;fillColor=light-dark(#FFFFFF,var(--ge-dark-color, #121212));align=left;verticalAlign=top;spacingLeft=4;spacingRight=4;overflow=hidden;rotatable=0;points=[[0,0.5],[1,0.5]];portConstraint=eastwest;" parent="22" vertex="1">
          <mxGeometry y="78" width="120" height="26" as="geometry" />
        </mxCell>
        <mxCell id="26" value="closed" style="text;strokeColor=none;fillColor=light-dark(#FFFFFF,var(--ge-dark-color, #121212));align=left;verticalAlign=top;spacingLeft=4;spacingRight=4;overflow=hidden;rotatable=0;points=[[0,0.5],[1,0.5]];portConstraint=eastwest;" parent="22" vertex="1">
          <mxGeometry y="104" width="120" height="26" as="geometry" />
        </mxCell>
        <mxCell id="27" value="timestamp" style="text;strokeColor=none;fillColor=light-dark(#FFFFFF,var(--ge-dark-color, #121212));align=left;verticalAlign=top;spacingLeft=4;spacingRight=4;overflow=hidden;rotatable=0;points=[[0,0.5],[1,0.5]];portConstraint=eastwest;" parent="22" vertex="1">
          <mxGeometry y="130" width="120" height="26" as="geometry" />
        </mxCell>
        <mxCell id="28" value="Routes" style="swimlane;fontStyle=1;align=center;verticalAlign=top;childLayout=stackLayout;horizontal=1;startSize=26;horizontalStack=0;resizeParent=1;resizeParentMax=0;resizeLast=0;collapsible=1;marginBottom=0;fillColor=light-dark(#FFFFFF,var(--ge-dark-color, #121212));" parent="1" vertex="1">
          <mxGeometry x="640" y="150" width="120" height="208" as="geometry" />
        </mxCell>
        <mxCell id="29" value="route_id (PK)" style="text;strokeColor=none;fillColor=light-dark(#FFFFFF,var(--ge-dark-color, #121212));align=left;verticalAlign=top;spacingLeft=4;spacingRight=4;overflow=hidden;rotatable=0;points=[[0,0.5],[1,0.5]];portConstraint=eastwest;" parent="28" vertex="1">
          <mxGeometry y="26" width="120" height="26" as="geometry" />
        </mxCell>
        <mxCell id="30" value="order_id (FK)" style="text;strokeColor=none;fillColor=light-dark(#FFFFFF,var(--ge-dark-color, #121212));align=left;verticalAlign=top;spacingLeft=4;spacingRight=4;overflow=hidden;rotatable=0;points=[[0,0.5],[1,0.5]];portConstraint=eastwest;" parent="28" vertex="1">
          <mxGeometry y="52" width="120" height="26" as="geometry" />
        </mxCell>
        <mxCell id="31" value="vehicle_id (FK)" style="text;strokeColor=none;fillColor=light-dark(#FFFFFF,var(--ge-dark-color, #121212));align=left;verticalAlign=top;spacingLeft=4;spacingRight=4;overflow=hidden;rotatable=0;points=[[0,0.5],[1,0.5]];portConstraint=eastwest;" parent="28" vertex="1">
          <mxGeometry y="78" width="120" height="26" as="geometry" />
        </mxCell>
        <mxCell id="XyZcBK7jYZB0KsHdGc-1-47" value="vehicle_id (FK)" style="text;strokeColor=none;fillColor=light-dark(#FFFFFF,var(--ge-dark-color, #121212));align=left;verticalAlign=top;spacingLeft=4;spacingRight=4;overflow=hidden;rotatable=0;points=[[0,0.5],[1,0.5]];portConstraint=eastwest;" vertex="1" parent="28">
          <mxGeometry y="104" width="120" height="26" as="geometry" />
        </mxCell>
        <mxCell id="32" value="start_time" style="text;strokeColor=none;fillColor=light-dark(#FFFFFF,var(--ge-dark-color, #121212));align=left;verticalAlign=top;spacingLeft=4;spacingRight=4;overflow=hidden;rotatable=0;points=[[0,0.5],[1,0.5]];portConstraint=eastwest;" parent="28" vertex="1">
          <mxGeometry y="130" width="120" height="26" as="geometry" />
        </mxCell>
        <mxCell id="33" value="end_time" style="text;strokeColor=none;fillColor=light-dark(#FFFFFF,var(--ge-dark-color, #121212));align=left;verticalAlign=top;spacingLeft=4;spacingRight=4;overflow=hidden;rotatable=0;points=[[0,0.5],[1,0.5]];portConstraint=eastwest;" parent="28" vertex="1">
          <mxGeometry y="156" width="120" height="26" as="geometry" />
        </mxCell>
        <mxCell id="34" value="distance" style="text;strokeColor=none;fillColor=light-dark(#FFFFFF,var(--ge-dark-color, #121212));align=left;verticalAlign=top;spacingLeft=4;spacingRight=4;overflow=hidden;rotatable=0;points=[[0,0.5],[1,0.5]];portConstraint=eastwest;" parent="28" vertex="1">
          <mxGeometry y="182" width="120" height="26" as="geometry" />
        </mxCell>
        <mxCell id="XyZcBK7jYZB0KsHdGc-1-41" value="" style="edgeStyle=entityRelationEdgeStyle;fontSize=12;html=1;endArrow=ERoneToMany;rounded=0;fillColor=light-dark(#FFFFFF,var(--ge-dark-color, #121212));entryX=0.993;entryY=0.073;entryDx=0;entryDy=0;entryPerimeter=0;exitX=0.001;exitY=0.074;exitDx=0;exitDy=0;exitPerimeter=0;" edge="1" parent="1" source="28" target="2">
          <mxGeometry width="100" height="100" relative="1" as="geometry">
            <mxPoint x="570" y="160" as="sourcePoint" />
            <mxPoint x="550" y="40" as="targetPoint" />
            <Array as="points">
              <mxPoint x="630" y="247" />
            </Array>
          </mxGeometry>
        </mxCell>
        <mxCell id="XyZcBK7jYZB0KsHdGc-1-42" value="1 ко многим" style="edgeLabel;html=1;align=center;verticalAlign=middle;resizable=0;points=[];fillColor=light-dark(#FFFFFF,var(--ge-dark-color, #121212));" vertex="1" connectable="0" parent="XyZcBK7jYZB0KsHdGc-1-41">
          <mxGeometry x="-0.0481" relative="1" as="geometry">
            <mxPoint as="offset" />
          </mxGeometry>
        </mxCell>
        <mxCell id="XyZcBK7jYZB0KsHdGc-1-43" value="" style="edgeStyle=entityRelationEdgeStyle;fontSize=12;html=1;endArrow=ERmandOne;startArrow=ERmandOne;rounded=0;exitX=0;exitY=0.5;exitDx=0;exitDy=0;fillColor=light-dark(#FFFFFF,var(--ge-dark-color, #121212));" edge="1" parent="1" source="31" target="10">
          <mxGeometry width="100" height="100" relative="1" as="geometry">
            <mxPoint x="770" y="240" as="sourcePoint" />
            <mxPoint x="770" y="-80" as="targetPoint" />
            <Array as="points">
              <mxPoint x="800" y="240" />
              <mxPoint x="690" y="10" />
              <mxPoint x="790" y="140" />
              <mxPoint x="800" y="70" />
              <mxPoint x="800" y="90" />
            </Array>
          </mxGeometry>
        </mxCell>
        <mxCell id="XyZcBK7jYZB0KsHdGc-1-44" value="1 к 1" style="edgeLabel;html=1;align=center;verticalAlign=middle;resizable=0;points=[];fillColor=light-dark(#FFFFFF,var(--ge-dark-color, #121212));" vertex="1" connectable="0" parent="XyZcBK7jYZB0KsHdGc-1-43">
          <mxGeometry x="-0.0401" relative="1" as="geometry">
            <mxPoint as="offset" />
          </mxGeometry>
        </mxCell>
        <mxCell id="XyZcBK7jYZB0KsHdGc-1-45" value="" style="edgeStyle=entityRelationEdgeStyle;fontSize=12;html=1;endArrow=ERmany;startArrow=ERmany;rounded=0;entryX=-0.002;entryY=0.061;entryDx=0;entryDy=0;entryPerimeter=0;exitX=1.011;exitY=0.082;exitDx=0;exitDy=0;exitPerimeter=0;fillColor=light-dark(#FFFFFF,var(--ge-dark-color, #121212));" edge="1" parent="1" source="28" target="22">
          <mxGeometry width="100" height="100" relative="1" as="geometry">
            <mxPoint x="770" y="380" as="sourcePoint" />
            <mxPoint x="940" y="160" as="targetPoint" />
          </mxGeometry>
        </mxCell>
        <mxCell id="XyZcBK7jYZB0KsHdGc-1-46" value="многие ко многим" style="edgeLabel;html=1;align=center;verticalAlign=middle;resizable=0;points=[];fillColor=light-dark(#FFFFFF,var(--ge-dark-color, #121212));" vertex="1" connectable="0" parent="XyZcBK7jYZB0KsHdGc-1-45">
          <mxGeometry x="-0.1321" y="1" relative="1" as="geometry">
            <mxPoint as="offset" />
          </mxGeometry>
        </mxCell>
        <mxCell id="XyZcBK7jYZB0KsHdGc-1-48" value="" style="edgeStyle=entityRelationEdgeStyle;fontSize=12;html=1;endArrow=ERmany;startArrow=ERmany;rounded=0;entryX=-0.003;entryY=0.098;entryDx=0;entryDy=0;entryPerimeter=0;exitX=1.005;exitY=-0.119;exitDx=0;exitDy=0;exitPerimeter=0;fillColor=light-dark(#FFFFFF,var(--ge-dark-color, #121212));" edge="1" parent="1" source="32" target="15">
          <mxGeometry width="100" height="100" relative="1" as="geometry">
            <mxPoint x="771" y="470.5" as="sourcePoint" />
            <mxPoint x="870" y="323.5" as="targetPoint" />
            <Array as="points">
              <mxPoint x="810" y="573.5" />
            </Array>
          </mxGeometry>
        </mxCell>
        <mxCell id="XyZcBK7jYZB0KsHdGc-1-49" value="многие ко многим" style="edgeLabel;html=1;align=center;verticalAlign=middle;resizable=0;points=[];fillColor=light-dark(#FFFFFF,var(--ge-dark-color, #121212));" vertex="1" connectable="0" parent="XyZcBK7jYZB0KsHdGc-1-48">
          <mxGeometry x="-0.1321" y="1" relative="1" as="geometry">
            <mxPoint as="offset" />
          </mxGeometry>
        </mxCell>
      </root>
    </mxGraphModel>
  </diagram>
</mxfile>
